# xmcd
#
# Track frame offsets:
#	150
#	18627
#	37462
#	54602
#	70209
#	87088
#
# Disc length: 1401 seconds
#
# Revision: 0
# Processed by: cddbd v1.5.2PL0 Copyright (c) Steve Scherf et al.
# Submitted via: audiograbber 1.83.01
#
DISCID=52057706
DTITLE=LadyShake - Promo
DYEAR=1900
DGENRE=Pop
TTITLE0=LadyShake - 1. Disco inferno
TTITLE1=LadyShake - 2. Happyness
TTITLE2=LadyShake - 3. Lady Marmelade
TTITLE3=LadyShake - 4. Naturel woman
TTITLE4=LadyShake - 5. River deep
TTITLE5=LadyShake - 6. Turn the best
EXTD=
EXTT0=
EXTT1=
EXTT2=
EXTT3=
EXTT4=
EXTT5=
PLAYORDER=
